<?xml version="1.0" encoding="utf-8"?>
<!-- Generator: Adobe Illustrator 16.0.0, SVG Export Plug-In . SVG Version: 6.00 Build 0)  -->
<!DOCTYPE svg PUBLIC "-//W3C//DTD SVG 1.1//EN" "http://www.w3.org/Graphics/SVG/1.1/DTD/svg11.dtd">
<svg version="1.1" id="Layer_1" xmlns="http://www.w3.org/2000/svg" xmlns:xlink="http://www.w3.org/1999/xlink" x="0px" y="0px"
	 width="802px" height="800px" viewBox="0 0 802 800" enable-background="new 0 0 802 800" xml:space="preserve">
<g>
	<path fill="#007F40" d="M603.31,610.89c0.11-0.189,0.2-0.35,0.28-0.489c0.101-0.17,0.17-0.351,0.22-0.53
		C603.67,610.19,603.5,610.53,603.31,610.89z"/>
	<path fill="#007F40" d="M618.21,545.01c-0.69-0.859-1.94-1.02-2.81-0.33c-0.62,0.49-3.181,0.79-5.23,1.04l-0.83,0.101
		c-1.21,0.14-3.479,0.5-6.28,1.33c-0.04-0.551-0.109-1.12-0.189-1.7c0.02-0.021,0.05-0.03,0.07-0.04
		c4.84-3.8,10.939-13.92,13.31-22.101c2.35-8.079,2.65-16.069,0.83-21.909c-0.91-2.9-2.23-5.62-3.3-7.811
		c-0.8-1.649-1.63-3.359-1.71-4.07c-0.011-0.119-0.04-0.239-0.08-0.35c0.01-0.06,0.01-0.11,0.01-0.17c0-1.1-0.9-2-2-2
		c-0.46,0-0.88,0.16-1.22,0.42c0.79-7.34,0.46-13.689-0.23-17.6c-0.92-5.261-3.13-10.011-4.79-12.2l-0.26-0.34
		c-1.23-1.61-2.61-3.431-2.77-4.49c-0.171-1.1-1.19-1.85-2.28-1.68c-0.08,0.01-0.16,0.04-0.24,0.06
		c-0.229,0.021-0.45,0.08-0.66,0.18c-0.72,0.351-2.02,1.08-3.5,2.08c-0.22-0.39-0.46-0.8-0.71-1.21c1.58-0.84,3.63-2.18,4.96-4.069
		c2.05-2.9,5.26-8.931,6.59-12.94c0.471-1.4,2.71-8.58,1-12.16c-0.88-1.819-1.89-5.58-1.89-7.72c0-1.35-0.17-3.271-1.64-4.34
		c-1.58-1.16-3.57-0.521-4.221-0.311c-0.409,0.13-0.89,0.301-1.399,0.5c2.84-4.81,4.97-9.739,5.93-12.939
		c1.33-4.44,0.38-9.97-0.96-13.67c-0.32-0.89-0.64-1.68-0.93-2.39c-0.55-1.33-0.98-2.38-0.891-2.95c0.13-0.82-0.26-1.61-0.93-2.02
		c0.76-6.06,1.11-16.58-0.69-21.04c-1.25-3.09-3.17-4.86-4.569-6.14c-0.47-0.43-1.101-1.02-1.21-1.26c-0.11-0.28-0.29-0.52-0.5-0.71
		c-0.3-0.43-0.771-0.74-1.33-0.82c-1.09-0.16-2.11,0.59-2.271,1.68c-0.12,0.78-1.6,2.84-4.409,6.11c-2.11,2.47-4.061,5.36-4.061,9.8
		c0,5.06,3.12,13.03,4.65,16.63c-2.851,3.09-5.82,9.79-7.07,15.99c-1.21-0.79-2.4-1.41-3.45-1.76c-3.33-1.11-8.46-0.54-9.04-0.47
		c-0.16,0.01-0.319,0.06-0.46,0.11c-0.069,0.01-0.14,0.01-0.21,0.02c-1.08,0.22-1.78,1.27-1.57,2.36c0.011,0.04,0.94,4.8,0.341,8.38
		c-0.92,5.53-0.29,10.04,1.87,13.41c2.26,3.51,8.579,9.9,14.579,14.08c-0.029,1.58,0.021,3.28,0.15,5.09
		c-2.91-1.5-5.59-2.29-7.46-2.83c-0.83-0.24-1.86-0.54-2.12-0.7c-0.91-0.63-2.16-0.399-2.78,0.511
		c-0.25,0.359-0.359,0.779-0.35,1.189c-0.03,0.391,0.05,0.79,0.26,1.15c0.34,0.609,0.17,2.649,0.021,4.45
		c-0.12,1.359-0.25,2.899-0.28,4.609c-0.05,2.97,0.23,10.54,3.96,16.59c2.75,4.431,7.14,10.23,10.58,14.391
		c-2.7-0.74-5.39-0.95-7.38-1.101c-0.91-0.069-2.05-0.149-2.3-0.229c-0.44-0.21-0.91-0.24-1.341-0.13
		c-0.14-0.03-0.279-0.061-0.42-0.07c-1.08-0.05-2.04,0.8-2.1,1.9l-0.03,0.529c-0.13,2.23-0.47,8.15,0.561,14.08
		c0.899,5.221,4.569,12.15,7.239,17.21c0.24,0.46,0.471,0.88,0.681,1.3c-1.26,0-2.48,0.061-3.57,0.131
		c-1.13,0.06-2.649,0.14-3.12,0.05c-0.96-0.44-2.1-0.061-2.6,0.88c-0.37,0.72-0.271,1.55,0.189,2.15c0.41,1.369,0.07,4.779-0.25,8.1
		c-0.09,0.85-0.18,1.74-0.26,2.66c-0.57,6.229,1.49,12.05,6.29,17.79c4.43,5.3,10.03,9.52,15.65,11.859
		c-2.811,2.61-5.38,5.67-7.271,8.431c-0.8-1.09-1.54-1.971-2.149-2.681c-0.431-0.51-0.96-1.14-1.11-1.409
		c-0.15-0.801-0.75-1.41-1.51-1.591c-0.19-0.069-0.391-0.12-0.601-0.12c-1.09-0.029-1.97,0.771-2.06,1.83
		c-0.11,0.28-0.59,0.851-1.1,1.33c-4.95,4.03-11.36,12.811-11.23,23.221c0.1,8.38,2.13,17.43,3.01,21
		c-2.479,1.369-4.569,2.779-5.99,3.83c-0.6-7.011-3.17-12.271-4.56-15.08c-0.26-0.53-0.47-0.971-0.62-1.311
		c-0.689-1.609-0.88-2.229-0.93-2.399c-0.101-0.87-0.771-1.601-1.68-1.74c-0.58-0.09-1.141,0.09-1.57,0.439
		c-4.97,1.851-14.29,11.301-16.71,19.811c-2.181,7.68-1.75,20.979-1.61,24.2c-5.16,1.029-9.95,3.21-13.97,6.359
		c0.66-3.149,0.87-6.069,0.71-8.52c-0.42-6.87-3.87-12.221-5.16-14.23c-0.15-0.22-0.26-0.39-0.32-0.5
		c-0.279-0.51-0.409-1.34-0.43-1.58c-0.1-1.1-1.06-1.93-2.16-1.83c-0.75,0.07-1.37,0.54-1.649,1.181
		c-0.04,0.06-0.091,0.12-0.12,0.189c-0.45,0.88-0.69,1.351-1.44,1.891c-7.6,4.239-14.18,11.5-17.359,19.25
		c-3.5,8.52-3.021,19.759-0.391,26.069c-2.68,1.689-8.54,2.97-21.81,1.91c-8-0.63-17.221,0.96-21.21,3.44
		c-0.94,0.579-1.23,2.02-0.65,2.96c0.38,0.6,1.24,1.14,1.91,1.14c0.36,0,0.72-0.1,1.05-0.3c2.83-1.76,10.73-3.069,18.58-2.449
		c9.05,0.72,21.681,0.839,26.591-4.11c2.779,0.63,8.539,0.749,14.64-6.221c1.47-1.68,2.75-3.02,3.859-4.77
		c2.101,1.7,8.24,5.39,18.891,5.39c0.63,0,1.279-0.02,1.939-0.05c12.22-0.55,18.8-2.47,21.99-6.41c1.22-1.51,2.13-3.13,2.939-4.55
		c0.62-1.101,1.211-2.141,1.7-2.68c0.83-0.9,1.42-1.521,1.75-1.87c0.08-0.051,0.15-0.101,0.221-0.15
		c0.319-0.3,0.529-0.68,0.609-1.08c0.17-0.67,0.01-1.399-0.51-1.92c-0.13-0.12-0.26-0.22-0.41-0.3c-2.479-2.61-5.47-4.38-9.42-5.48
		c0.97-1.479,2.37-3.8,3.71-6.63c3.71,1.641,10.271,2.87,17.11,2.87c5,0,10.149-0.66,14.43-2.3c9.58-3.67,14.25-12.36,16.25-16.07
		c0.03-0.05,0.05-0.1,0.07-0.14c0.1-0.18,0.189-0.351,0.279-0.521c0.19-0.359,0.36-0.699,0.5-1.02c0.58-1.4,0.561-2.47-0.85-3.351
		c-0.05-0.05-0.1-0.079-0.16-0.109c-0.59-0.42-1.46-0.91-2.729-1.48c-2.141-0.97-7.811-2.96-14.12-3.81
		c2.12-4.94,3.22-12.47,2.5-19.63c2.34-0.41,8.26-1.71,13.609-5.04c4.16-2.601,13.91-9.4,14.601-16.49
		c0.149-1.59,0.24-3.17,0.33-4.7c0.16-2.899,0.35-6.189,0.97-7.229c0.1-0.16,0.16-0.33,0.21-0.5
		C618.76,546.82,618.8,545.77,618.21,545.01z M536.55,609.8c1.561-5.52,6.431-11.319,10.37-14.62c-3.66,9.98-6.59,28.811-7.32,37.07
		c-0.569-0.02-1.13-0.02-1.72-0.02c-0.95,0-1.88,0.05-2.8,0.119C534.94,628.74,534.63,616.55,536.55,609.8z M491.72,657.04
		c-1.43-5.82-1.37-14.24,1.17-20.41c2.66-6.49,8-12.61,14.271-16.49c-0.96,3.61-2.75,8.761-5.43,15.561
		C499.21,642.12,495.14,650.75,491.72,657.04z M504.89,654.92c-4.85,5.54-9.06,4.96-10.789,4.55c3.6-6.47,7.689-15.739,10.419-22.67
		c2.91-7.41,4.78-12.819,5.721-16.62c1.37,2.32,3.319,6.21,3.6,10.811C514.23,637.17,512.08,646.7,504.89,654.92z M554.04,645.19
		c-0.73,1.29-1.56,2.75-2.57,4c-1.47,1.81-5.04,4.3-19.06,4.939c-8.99,0.4-14.1-2.149-16.609-3.84c0.239,0,0.46,0.01,0.699,0.01
		c7.761,0,17.34-1.08,24.41-2.45c4.62-0.899,8.77-2.04,12.1-2.949c0.49-0.141,0.96-0.271,1.41-0.391
		C554.29,644.73,554.17,644.96,554.04,645.19z M556.82,640.8c-1.261,0.29-2.811,0.71-4.601,1.2c-3.29,0.91-7.37,2.03-11.88,2.9
		c-7.17,1.39-17.79,2.279-25.45,2.189c5.341-6.83,13.82-10.859,22.99-10.859C547.49,636.23,552.94,637.5,556.82,640.8z
		 M554.81,614.24c-0.649,8.479-6.579,17.13-7.6,18.56c-1.43-0.2-2.96-0.35-4.61-0.45c0.83-9.439,4.11-28.88,7.641-37.46
		c0.12,0.23,0.24,0.49,0.38,0.771C552.32,599.11,555.47,605.54,554.81,614.24z M610.38,495.74c1.01,2.08,2.11,4.39,2.88,6.859
		c1.57,5.03,1.25,12.36-0.85,19.591c-1.86,6.43-6.54,14.659-10.47,18.72c-0.53-1.98-1.221-4.021-2.04-6.05
		c1.439-5.87,4.13-15.73,6.51-24.44C607.91,504.92,609.36,499.63,610.38,495.74z M607.47,494.99c-1.01,3.88-2.45,9.149-3.95,14.63
		c-1.949,7.12-4.1,15-5.609,20.87c-0.73-1.431-1.521-2.8-2.351-4.08l-0.68-1.061c0.16-0.27,0.26-0.569,0.28-0.909
		c0.32-5.71,1.68-14,3.57-18.101c1.979-4.29,5.189-8.38,7.21-10.05C606.5,495.83,607.01,495.4,607.47,494.99z M597.57,496.13
		c0.31-9,1.239-28.86,1.72-37.79c0.33,0.45,0.68,0.91,1.03,1.36l0.25,0.34c1.43,1.88,3.27,6.07,4.04,10.47
		c0.79,4.471,1.069,12.431-0.5,21.4c-0.04,0.229-0.03,0.47,0.01,0.689c-0.23,0.19-0.47,0.4-0.73,0.61
		c-1.56,1.29-3.319,3.34-4.92,5.64c-0.27-0.79-0.569-1.63-0.92-2.52C597.56,496.27,597.57,496.2,597.57,496.13z M596.38,456.69
		c-0.38,6.71-1.16,23.01-1.59,33.77c-1.62-2.95-3.68-5.96-6.28-8.61c-0.5-0.51-1.04-0.96-1.6-1.369c0-0.011,0.01-0.021,0.01-0.04
		c0.08-8.221,1.82-14.95,3.49-17.971C591.58,460.38,594.14,458.22,596.38,456.69z M602.28,424.78c0.529,1.109,0.229,4.93-1.181,9.17
		c-1.189,3.569-4.18,9.229-6.069,11.899c-0.931,1.32-2.67,2.391-3.99,3.051c-0.87-1.15-1.81-2.29-2.81-3.381
		c2.489-8.43,8.119-20.81,12.25-26.34C600.93,421.27,601.62,423.4,602.28,424.78z M599.36,414.49c0.25-0.08,0.439-0.13,0.569-0.15
		c0.03,0.17,0.061,0.44,0.07,0.84c-4.42,4.24-10.95,17.851-14.16,27.9c-0.609-0.57-1.229-1.12-1.859-1.62
		c-1.36-12.02,0.81-17.1,2.88-19.24C590.95,417.97,596.83,415.3,599.36,414.49z M597.08,383.7c0.27,0.66,0.57,1.39,0.87,2.23
		c1.069,2.95,1.939,7.65,0.88,11.16c-1.22,4.07-4.48,11.021-8.37,16.43c-0.229,0.32-0.35,0.681-0.37,1.04
		c-0.04,0.03-0.08,0.051-0.12,0.08c-0.979-1.699-2.47-4.279-3.79-6.62c2.721-8.6,7.12-19.43,10.54-25.209
		C596.83,383.1,596.95,383.39,597.08,383.7z M592.35,364.91c0.11-3.88,0.21-7.59,0.07-10.55c0.8,0.86,1.57,1.89,2.14,3.31
		c1.4,3.46,1.19,13.56,0.381,19.52c-0.181,0.03-0.351,0.07-0.54,0.1c-0.61,0.1-1.33,0.23-2.101,0.4
		C592.11,373.84,592.23,369.32,592.35,364.91z M583.92,364.83c0-2.98,1.18-4.96,3.1-7.19c0.921-1.08,1.721-2.05,2.421-2.94
		c0.109,2.8,0.02,6.38-0.091,10.12c-0.13,4.74-0.26,9.61-0.01,13.73c-0.46,0.17-0.93,0.38-1.399,0.6
		C585.44,373.15,583.92,367.73,583.92,364.83z M588.13,383.61c2.061-1.35,4.19-1.88,5.94-2.2c-3.38,5.76-7.29,15.42-9.88,23.06
		c-0.851-1.51-1.94-2.89-3.131-4.1C582.06,392.58,586.23,384.85,588.13,383.61z M572.78,399.48c2.5,0.83,6.189,3.73,8.05,7.14
		c1.54,2.84,4.42,7.84,5.87,10.35c-0.95,0.761-1.87,1.59-2.72,2.48c-0.601,0.609-1.12,1.31-1.601,2.08
		c-4.89-5.07-10.61-14.24-13.979-22.51C569.92,399,571.62,399.09,572.78,399.48z M568.35,417.34c-1.609-2.51-2.05-6.07-1.29-10.59
		c0.15-0.91,0.221-1.86,0.24-2.79c3.76,7.98,9.07,15.95,13.71,20.44c-0.479,1.34-0.84,2.83-1.08,4.479
		C575.09,425.15,570.12,420.08,568.35,417.34z M579.23,442.97c3.229,1.931,6.949,5.91,9.55,9.601c0.01,0.01,0.01,0.029,0.02,0.04
		c0.811,1.159,1.5,2.27,2.04,3.3c-1.54,1.359-2.979,2.93-3.92,4.62c-0.189,0.33-0.36,0.689-0.54,1.06
		c-4.189-6.75-9.28-15.02-12.57-21.08C575.46,441.07,577.31,441.83,579.23,442.97z M574.37,461.53c-2.21-3.561-3.47-8.95-3.37-14.41
		c0.03-1.58,0.15-3.05,0.26-4.351c0.021-0.199,0.03-0.39,0.05-0.579c3.66,6.72,9.37,15.909,13.71,22.89l0.04,0.06
		c-0.779,2.561-1.369,5.561-1.729,8.75C580.27,470.08,576.66,465.24,574.37,461.53z M585.66,484.65
		c4.2,4.279,7.79,10.859,9.83,18.06c0.06,0.22,0.16,0.42,0.279,0.59c-0.239,0.46-0.46,0.91-0.67,1.36
		c-0.869,1.88-1.619,4.46-2.239,7.27c-3.801-9.649-11.12-22.6-18.271-30.949C578.06,481.25,582.85,481.8,585.66,484.65z
		 M572.47,492.33c-0.63-3.63-0.7-7.29-0.64-9.97c8.27,9.43,17.21,26.1,19.89,35.43c0.021,0.05,0.05,0.1,0.07,0.15
		c-0.1,0.779-0.2,1.56-0.28,2.329c-2.39-3.42-4.59-5.88-7.779-7.479c-0.79-0.39-1.671-0.67-2.58-0.87
		c-0.011-0.01-0.011-0.03-0.021-0.05c-0.47-0.96-1.11-2.16-1.82-3.51C576.9,503.8,573.27,496.92,572.47,492.33z M581.94,516.37
		c3.489,1.75,5.659,5.1,9.25,10.66l1.02,1.56c4.43,6.82,6.86,15.32,6.9,19.84c0,0.04,0.01,0.07,0.01,0.101
		c-0.68,0.279-1.37,0.58-2.07,0.91c-5.729-9.261-15.63-24.591-23.89-33.801C575.95,515.48,579.75,515.28,581.94,516.37z
		 M576.2,540.72c-4.141-4.96-5.851-9.68-5.37-14.87c0.08-0.909,0.16-1.79,0.25-2.63c0.18-1.85,0.34-3.489,0.41-4.939
		c7.93,9.01,17.34,23.58,22.899,32.56c-0.689,0.41-1.37,0.86-2.06,1.36c-0.021,0-0.03-0.01-0.05-0.021
		C586.61,550.34,580.75,546.16,576.2,540.72z M577.29,564.66c1.63,2.01,3.8,5.07,5.58,9.91c3.41,9.229,1.479,21.239-1.17,26.18
		c-1.9-0.07-3.79,0-5.62,0.27c-0.23,0.04-0.46,0.091-0.69,0.131C575.03,588.42,576.25,571.99,577.29,564.66z M574.19,565.2
		c-1.101,8.39-2.16,24.83-1.78,36.66c-1.37,0.399-2.69,0.909-3.97,1.47c-0.921-3.86-2.601-11.93-2.69-19.23
		C565.65,576.07,570.25,569.01,574.19,565.2z M585.29,623.88c-9.39,3.59-23.5,1.74-28.57-0.52c0.25-0.67,0.49-1.36,0.71-2.061
		c0.78,0.07,1.62,0.12,2.561,0.12c9.729,0,26.85-3.74,37.89-9C595.59,616.26,591.73,621.42,585.29,623.88z M598.43,608.57
		c0.08,0.04,0.15,0.08,0.23,0.109c-11,5.91-31.26,10.29-40.44,9.69c0.28-1.26,0.48-2.54,0.57-3.82c0.02-0.22,0.02-0.42,0.04-0.64
		c0.16-0.07,0.32-0.16,0.46-0.28c0.09-0.08,8.82-7.38,17.38-8.649C585.26,603.7,596.02,607.49,598.43,608.57z M585.91,571.36
		c-0.66-1.551-1.33-2.91-2.01-4.11c3.18-5.26,8.83-10.99,13.14-13.33c5.49-2.97,10.68-3.87,12.72-4.13
		C603.55,555.06,594.09,563.2,585.91,571.36z M612.99,555.03c-0.08,1.489-0.17,3.04-0.32,4.54c-0.35,3.64-5.22,8.81-12.729,13.479
		c-4.681,2.92-10,4.101-12.101,4.48c-0.21-1.05-0.479-2.07-0.79-3.061c9.04-9.14,19.97-18.43,26.25-23.75
		C613.17,552.01,613.08,553.45,612.99,555.03z"/>
	<path fill="#007F40" d="M374.1,666.33c-3.99-2.48-13.02-3.87-21.01-3.24c-13.28,1.06-19.14-0.421-21.81-2.11
		c2.63-6.311,3.11-17.35-0.39-25.869c-3.19-7.75-9.77-15.011-17.36-19.25c-0.75-0.54-1-1.011-1.44-1.891
		c-0.04-0.069-0.08-0.13-0.12-0.189c-0.29-0.641-0.9-1.11-1.65-1.181c-1.11-0.09-2.07,0.73-2.16,1.83
		c-0.02,0.19-0.14,1.051-0.44,1.58c-0.06,0.11-0.17,0.28-0.31,0.5c-1.3,2.01-4.74,7.36-5.17,14.23c-0.15,2.45,0.05,5.37,0.72,8.52
		c-4.03-3.149-8.81-5.33-13.98-6.359c0.14-3.221,0.57-16.521-1.6-24.2c-2.42-8.51-11.74-17.95-16.71-19.811
		c-0.43-0.35-0.99-0.529-1.57-0.439c-0.91,0.14-1.58,0.87-1.69,1.74c-0.04,0.17-0.23,0.79-0.92,2.399
		c-0.15,0.34-0.37,0.78-0.62,1.311c-1.39,2.81-3.97,8.069-4.56,15.08c-1.43-1.051-3.51-2.461-5.99-3.83
		c0.88-3.57,2.91-12.62,3.01-21c0.12-10.42-6.29-19.2-11.24-23.23c-0.51-0.479-0.98-1.04-1.1-1.32c-0.09-1.06-1.01-1.88-2.06-1.83
		c-0.19,0-0.38,0.051-0.56,0.11c-0.78,0.17-1.4,0.79-1.54,1.601c-0.16,0.27-0.69,0.899-1.12,1.409c-0.6,0.71-1.34,1.591-2.15,2.681
		c-1.88-2.761-4.45-5.82-7.26-8.431c5.62-2.34,11.22-6.56,15.64-11.859c4.8-5.74,6.86-11.561,6.29-17.79
		c-0.08-0.92-0.17-1.811-0.25-2.66c-0.33-3.32-0.67-6.73-0.25-8.1c0.46-0.601,0.56-1.431,0.18-2.15c-0.49-0.94-1.64-1.32-2.59-0.88
		c-0.47,0.09-2,0.01-3.12-0.05c-1.09-0.07-2.32-0.131-3.58-0.131c0.22-0.42,0.44-0.84,0.68-1.3c2.68-5.06,6.34-11.989,7.25-17.21
		c1.02-5.93,0.68-11.85,0.55-14.08l-0.03-0.529c-0.05-1.101-0.97-1.96-2.09-1.9c-0.12,0.01-0.24,0.03-0.35,0.06
		c-0.44-0.119-0.91-0.1-1.36,0.11c-0.31,0.11-1.44,0.19-2.35,0.26c-2,0.15-4.69,0.36-7.38,1.101c3.43-4.16,7.83-9.96,10.57-14.391
		c3.74-6.05,4.02-13.62,3.97-16.59c-0.03-1.71-0.16-3.25-0.28-4.609c-0.15-1.801-0.32-3.841,0.02-4.45c0.23-0.41,0.3-0.87,0.23-1.3
		c-0.03-0.341-0.13-0.681-0.33-0.99c-0.6-0.91-1.85-1.15-2.77-0.57c-0.26,0.17-1.29,0.47-2.12,0.71c-1.87,0.54-4.56,1.33-7.46,2.83
		c0.12-1.81,0.17-3.51,0.14-5.09c6-4.18,12.32-10.57,14.58-14.08c2.17-3.37,2.8-7.88,1.88-13.41c-0.6-3.58,0.33-8.34,0.34-8.38
		c0.21-1.09-0.49-2.14-1.58-2.36c-0.07-0.01-0.13-0.01-0.2-0.02c-0.15-0.05-0.3-0.1-0.47-0.11c-0.57-0.07-5.7-0.64-9.03,0.47
		c-1.06,0.35-2.25,0.97-3.46,1.76c-1.25-6.2-4.22-12.9-7.06-15.99c1.53-3.6,4.65-11.57,4.65-16.63c0-4.44-1.95-7.33-4.07-9.8
		c-2.8-3.27-4.29-5.33-4.4-6.11c-0.17-1.09-1.19-1.85-2.28-1.68c-0.59,0.09-1.08,0.44-1.38,0.9c-0.18,0.18-0.33,0.39-0.44,0.63
		c-0.11,0.24-0.75,0.83-1.21,1.26c-1.41,1.28-3.33,3.05-4.57,6.14c-1.8,4.46-1.46,14.98-0.7,21.04c-0.66,0.41-1.06,1.2-0.93,2.02
		c0.09,0.57-0.34,1.62-0.88,2.95c-0.29,0.71-0.61,1.5-0.94,2.39c-1.33,3.7-2.28,9.23-0.95,13.67c0.96,3.2,3.09,8.13,5.93,12.939
		c-0.52-0.199-0.99-0.37-1.4-0.5c-0.65-0.21-2.64-0.85-4.22,0.311c-1.47,1.069-1.64,2.99-1.64,4.34c0,2.14-1.02,5.9-1.89,7.72
		c-1.71,3.58,0.53,10.76,0.99,12.16c1.33,4.01,4.55,10.04,6.6,12.94c1.32,1.89,3.37,3.229,4.96,4.069
		c-0.25,0.41-0.49,0.82-0.71,1.21c-1.48-1-2.78-1.729-3.5-2.08c-0.22-0.1-0.44-0.159-0.66-0.18c-0.08-0.02-0.16-0.05-0.25-0.06
		c-1.09-0.17-2.11,0.59-2.27,1.68c-0.16,1.06-1.55,2.88-2.77,4.49l-0.26,0.34c-1.66,2.189-3.87,6.939-4.8,12.2
		c-0.68,3.91-1.01,10.26-0.22,17.6c-0.34-0.26-0.76-0.42-1.22-0.42c-1.11,0-2,0.9-2,2v0.17c-0.03,0.11-0.06,0.23-0.07,0.35
		c-0.09,0.711-0.92,2.421-1.72,4.07c-1.06,2.19-2.38,4.91-3.29,7.811c-1.82,5.84-1.52,13.83,0.82,21.909
		c2.38,8.181,8.47,18.301,13.31,22.101c0.03,0.01,0.05,0.02,0.08,0.04c-0.09,0.58-0.15,1.149-0.19,1.7
		c-2.8-0.83-5.08-1.19-6.29-1.33l-0.82-0.101c-2.06-0.25-4.61-0.55-5.23-1.04c-0.87-0.689-2.13-0.54-2.81,0.33
		c-0.59,0.76-0.56,1.811,0.04,2.521c0.04,0.17,0.11,0.34,0.2,0.5c0.62,1.04,0.81,4.33,0.98,7.229c0.09,1.53,0.18,3.11,0.33,4.7
		c0.68,7.09,10.44,13.89,14.6,16.49c5.35,3.33,11.26,4.63,13.61,5.04c-0.73,7.149,0.37,14.689,2.5,19.63
		c-6.31,0.85-11.99,2.84-14.12,3.81c-0.84,0.38-1.51,0.721-2.04,1.03c-0.05,0.03-0.1,0.05-0.15,0.09
		c-2.73,1.47-2.45,3.15-0.61,5.681c0.01,0.02,0.03,0.029,0.04,0.05c2.05,3.819,6.72,12.239,16.11,15.84
		c4.29,1.64,9.43,2.3,14.44,2.3c6.83,0,13.39-1.229,17.11-2.87c1.33,2.83,2.74,5.15,3.71,6.63c-3.96,1.101-6.94,2.87-9.43,5.48
		c-0.14,0.08-0.28,0.18-0.4,0.3c-0.52,0.521-0.69,1.25-0.52,1.92c0.09,0.4,0.29,0.78,0.62,1.08c0.07,0.05,0.14,0.1,0.21,0.15
		c0.33,0.35,0.93,0.97,1.75,1.87c0.5,0.539,1.09,1.579,1.71,2.68c0.8,1.42,1.72,3.04,2.94,4.55c3.19,3.94,9.76,5.86,21.99,6.41
		c0.66,0.03,1.31,0.05,1.94,0.05c10.65,0,16.79-4.09,18.88-5.8c1.11,1.76,2.39,3.5,3.87,5.18c6.09,6.97,12.06,6.851,14.84,6.221
		c4.91,4.949,17.34,4.63,26.39,3.91c7.84-0.631,15.75,0.89,18.58,2.649c0.33,0.2,0.69,0.3,1.05,0.3c0.67,0,1.52-0.54,1.9-1.14
		C375.52,668.55,375.04,666.909,374.1,666.33z M254.33,584.1c-0.09,7.301-1.78,15.37-2.69,19.23c-1.28-0.561-2.61-1.07-3.97-1.47
		c0.37-11.83-0.68-28.271-1.78-36.66C249.83,569.01,254.42,576.07,254.33,584.1z M242.78,564.66c1.04,7.32,2.26,23.76,1.91,36.49
		c-0.23-0.04-0.46-0.091-0.69-0.131c-1.83-0.27-3.73-0.34-5.63-0.27c-2.65-4.94-4.57-16.95-1.17-26.18
		C238.98,569.73,241.15,566.67,242.78,564.66z M248.58,518.28c0.08,1.45,0.24,3.09,0.42,4.939c0.08,0.84,0.17,1.721,0.25,2.63
		c0.47,5.19-1.23,9.91-5.37,14.87c-4.56,5.44-10.42,9.62-16.09,11.46c-0.01,0.011-0.03,0.021-0.04,0.021
		c-0.69-0.5-1.38-0.95-2.06-1.36C231.25,541.86,240.66,527.29,248.58,518.28z M246.92,515.64c-8.26,9.21-18.17,24.54-23.89,33.801
		c-0.7-0.33-1.39-0.631-2.07-0.91c0-0.03,0.01-0.061,0.01-0.101c0.03-4.52,2.47-13.02,6.9-19.84l1.01-1.56
		c3.59-5.561,5.76-8.91,9.26-10.66C240.33,515.28,244.12,515.48,246.92,515.64z M248.24,482.36c0.06,2.68-0.01,6.34-0.63,9.97
		c-0.8,4.59-4.44,11.47-6.84,16.03c-0.72,1.35-1.35,2.55-1.82,3.51c-0.01,0.02-0.01,0.03-0.02,0.05c-0.92,0.2-1.79,0.48-2.58,0.87
		c-3.19,1.6-5.39,4.06-7.78,7.479c-0.08-0.77-0.18-1.55-0.29-2.329c0.02-0.051,0.06-0.101,0.07-0.15
		C231.04,508.46,239.98,491.79,248.24,482.36z M245.48,480.98c-7.14,8.35-14.47,21.3-18.26,30.949c-0.62-2.81-1.38-5.39-2.24-7.27
		c-0.21-0.45-0.44-0.9-0.68-1.36c0.13-0.17,0.22-0.37,0.28-0.59c2.05-7.2,5.63-13.78,9.84-18.06
		C237.23,481.8,242.01,481.25,245.48,480.98z M248.77,442.19c0.01,0.189,0.03,0.38,0.04,0.579c0.11,1.301,0.24,2.771,0.27,4.351
		c0.09,5.46-1.17,10.85-3.37,14.41c-2.29,3.71-5.9,8.55-8.96,12.359c-0.36-3.189-0.96-6.189-1.73-8.75l0.04-0.06
		C239.4,458.1,245.11,448.91,248.77,442.19z M240.85,442.97c1.91-1.14,3.77-1.899,5.42-2.46c-3.29,6.061-8.39,14.33-12.58,21.08
		c-0.17-0.37-0.35-0.729-0.53-1.06c-0.94-1.69-2.38-3.261-3.93-4.62c0.54-1.03,1.23-2.15,2.04-3.3c0.01-0.011,0.02-0.021,0.02-0.03
		C233.89,448.89,237.62,444.9,240.85,442.97z M253.02,406.75c0.75,4.52,0.32,8.08-1.29,10.59c-1.77,2.74-6.74,7.811-11.58,11.54
		c-0.24-1.649-0.6-3.149-1.08-4.479c4.64-4.49,9.95-12.46,13.71-20.44C252.8,404.89,252.87,405.84,253.02,406.75z M247.29,399.48
		c1.16-0.39,2.87-0.48,4.38-0.47c-3.37,8.28-9.08,17.45-13.97,22.521c-0.48-0.771-1.01-1.471-1.6-2.08
		c-0.86-0.891-1.78-1.72-2.72-2.48c1.45-2.51,4.33-7.51,5.87-10.35C241.1,403.21,244.79,400.31,247.29,399.48z M230.64,354.7
		c0.69,0.89,1.49,1.86,2.42,2.94c1.91,2.23,3.1,4.21,3.1,7.19c0,2.9-1.53,8.32-4.02,14.32c-0.48-0.22-0.95-0.43-1.41-0.6
		c0.26-4.12,0.12-8.99-0.01-13.73C230.62,361.08,230.52,357.5,230.64,354.7z M231.95,383.61c1.89,1.24,6.07,8.97,7.06,16.77
		c-1.19,1.2-2.27,2.58-3.12,4.09c-2.59-7.64-6.5-17.3-9.88-23.06C227.75,381.73,229.88,382.26,231.95,383.61z M225.51,357.67
		c0.57-1.42,1.34-2.45,2.14-3.31c-0.13,2.96-0.03,6.67,0.07,10.55c0.12,4.41,0.24,8.93,0.05,12.78c-0.77-0.17-1.48-0.3-2.1-0.4
		c-0.18-0.03-0.36-0.07-0.53-0.1C224.33,371.23,224.11,361.13,225.51,357.67z M221.24,397.09c-1.05-3.51-0.18-8.21,0.88-11.16
		c0.31-0.84,0.61-1.57,0.88-2.23c0.13-0.31,0.24-0.6,0.36-0.89c3.41,5.78,7.82,16.61,10.53,25.209c-1.32,2.341-2.81,4.921-3.79,6.62
		c-0.04-0.029-0.08-0.05-0.12-0.08c-0.02-0.359-0.13-0.72-0.36-1.04C225.73,408.11,222.46,401.16,221.24,397.09z M220.14,414.34
		c0.14,0.021,0.32,0.07,0.57,0.15c2.54,0.81,8.41,3.479,12.51,7.729c2.06,2.141,4.23,7.221,2.88,19.24
		c-0.63,0.5-1.25,1.05-1.87,1.62c-3.2-10.05-9.73-23.66-14.15-27.9C220.09,414.78,220.11,414.51,220.14,414.34z M225.04,445.85
		c-1.88-2.67-4.88-8.33-6.06-11.899c-1.41-4.24-1.71-8.061-1.18-9.17c0.66-1.38,1.35-3.511,1.79-5.601
		c4.14,5.53,9.77,17.91,12.25,26.34c-0.99,1.091-1.94,2.23-2.81,3.381C227.72,448.24,225.98,447.17,225.04,445.85z M229.66,462.47
		c1.68,3.021,3.41,9.75,3.5,17.971c0,0.02,0,0.029,0.01,0.04c-0.57,0.409-1.1,0.859-1.6,1.369c-2.61,2.65-4.66,5.66-6.28,8.61
		c-0.44-10.76-1.21-27.06-1.6-33.77C225.94,458.22,228.5,460.38,229.66,462.47z M215.46,470.51c0.77-4.399,2.62-8.59,4.04-10.47
		l0.26-0.34c0.35-0.45,0.69-0.91,1.02-1.36c0.49,8.93,1.41,28.79,1.72,37.79c0,0.07,0.02,0.14,0.03,0.2
		c-0.35,0.89-0.66,1.729-0.93,2.52c-1.6-2.3-3.36-4.35-4.91-5.64c-0.26-0.21-0.5-0.42-0.73-0.61c0.04-0.22,0.04-0.46,0-0.689
		C214.4,482.94,214.68,474.98,215.46,470.51z M214.14,496.29c2.01,1.67,5.22,5.76,7.2,10.05c1.9,4.101,3.26,12.391,3.57,18.101
		c0.02,0.34,0.13,0.64,0.29,0.909l-0.68,1.061c-0.83,1.28-1.62,2.649-2.35,4.08c-1.51-5.87-3.67-13.75-5.61-20.87
		c-1.5-5.48-2.94-10.75-3.96-14.63C213.07,495.4,213.57,495.83,214.14,496.29z M207.66,522.19c-2.1-7.23-2.41-14.561-0.84-19.591
		c0.77-2.47,1.87-4.779,2.88-6.859c1.02,3.89,2.46,9.18,3.97,14.68c2.38,8.71,5.07,18.57,6.5,24.44c-0.82,2.029-1.5,4.069-2.03,6.05
		C214.21,536.85,209.53,528.62,207.66,522.19z M232.23,577.53c-2.09-0.37-7.4-1.55-12.1-4.48c-7.5-4.67-12.38-9.84-12.73-13.479
		c-0.14-1.5-0.23-3.051-0.32-4.54c-0.09-1.58-0.17-3.021-0.31-4.311c6.28,5.32,17.21,14.61,26.26,23.74
		C232.72,575.46,232.45,576.48,232.23,577.53z M210.32,549.79c2.04,0.26,7.23,1.16,12.72,4.13c4.31,2.34,9.95,8.07,13.14,13.33
		c-0.68,1.2-1.36,2.56-2.01,4.11C225.99,563.2,216.53,555.06,210.32,549.79z M221.65,608.57c2.41-1.08,13.16-4.87,21.76-3.59
		c8.56,1.27,17.29,8.569,17.37,8.649c0.15,0.12,0.31,0.21,0.47,0.28c0.01,0.22,0.02,0.42,0.03,0.64c0.1,1.28,0.3,2.561,0.58,3.82
		c-9.18,0.6-29.45-3.78-40.45-9.69C221.49,608.65,221.56,608.61,221.65,608.57z M234.79,623.88c-6.44-2.46-10.3-7.62-12.6-11.46
		c11.05,5.26,28.17,9,37.9,9c0.93,0,1.77-0.05,2.56-0.12c0.22,0.7,0.45,1.391,0.7,2.061C258.29,625.62,244.18,627.47,234.79,623.88z
		 M283.53,609.8c1.91,6.75,1.61,18.94,1.47,22.55c-0.93-0.069-1.86-0.119-2.8-0.119c-0.59,0-1.16,0-1.72,0.02
		c-0.73-8.26-3.66-27.09-7.32-37.07C277.09,598.48,281.96,604.28,283.53,609.8z M265.27,614.24c-0.67-8.7,2.49-15.13,4.19-18.58
		c0.13-0.28,0.26-0.54,0.37-0.771c3.54,8.58,6.81,28.021,7.65,37.46c-1.66,0.101-3.19,0.25-4.61,0.45
		C271.84,631.37,265.92,622.72,265.27,614.24z M287.67,654.13c-14.02-0.64-17.6-3.13-19.06-4.939c-1.01-1.25-1.84-2.71-2.57-4
		c-0.13-0.23-0.26-0.46-0.39-0.681c0.46,0.12,0.92,0.25,1.41,0.391c3.34,0.909,7.48,2.05,12.11,2.949
		c7.07,1.37,17.05,2.25,24.8,2.25c0.25,0,0.47-0.01,0.71-0.01C302.17,651.78,296.66,654.53,287.67,654.13z M279.74,644.9
		c-4.51-0.87-8.6-1.99-11.88-2.9c-1.79-0.49-3.34-0.91-4.61-1.2c3.89-3.3,9.34-4.569,18.95-4.569c9.17,0,17.65,4.029,22.98,10.859
		C297.53,647.18,286.9,646.29,279.74,644.9z M315.19,654.92c-7.19-8.22-9.34-17.75-8.96-23.93c0.29-4.601,2.24-8.49,3.61-10.811
		c0.94,3.801,2.8,9.21,5.72,16.62c2.72,6.931,7.21,16.391,10.82,22.87C324.63,660.08,320.03,660.45,315.19,654.92z M328.36,657.04
		c-3.42-6.29-7.49-14.92-10.01-21.34c-2.68-6.8-4.47-11.95-5.43-15.561c6.26,3.88,11.6,10,14.27,16.49
		C329.73,642.8,329.79,651.22,328.36,657.04z"/>
	<g>
		<g>
			<path fill="#007F40" d="M363.698,607.403c-6.103,0-12.017-2.785-14.909-5.605c-0.704-0.686-1.464-1.504-2.269-2.37
				c-2.649-2.852-6.652-7.16-9.637-7.16c-2.451,0-5.058,2.964-7.579,5.829c-1.205,1.369-2.45,2.785-3.75,3.953
				c-4.644,4.169-11.357,5.724-16.704,3.867c-4.926-1.709-11.967-8.398-13.529-10.289c-1.056-1.277-0.876-3.168,0.401-4.224
				c1.277-1.054,3.169-0.875,4.224,0.401c1.614,1.953,7.717,7.349,10.871,8.443c3.298,1.143,7.708,0.049,10.729-2.664
				c1.037-0.932,2.114-2.155,3.254-3.451c3.244-3.688,6.92-7.866,12.083-7.866c5.601,0,10.474,5.246,14.033,9.076
				c0.753,0.811,1.464,1.576,2.062,2.159c2.514,2.451,11.773,6.616,17.727,1.462c2.206-1.908,3.982-3.772,5.55-5.418
				c3.734-3.919,6.972-7.323,12.502-7.076c5.041,0.207,8.867,4.005,12.243,7.355c1.696,1.684,3.298,3.274,4.831,4.223
				c3.65,2.262,9.649,2.989,15.54-1.753c1.765-1.421,3.309-2.811,4.67-4.037c4.089-3.682,7.331-6.601,12.294-6.601
				c0.072,0,0.146,0,0.218,0.001c5.042,0.086,8.778,4.423,12.076,8.248c1.295,1.503,2.518,2.922,3.694,3.963
				c1.536,1.358,3.803,2.049,6.217,1.894c2.972-0.191,5.797-1.654,7.953-4.122c6.438-7.366,13.951-13.151,25.199-5.691l1.18,0.784
				c8.045,5.357,13.23,8.505,18.207,5.783c6.275-3.43,9.479-9.673,9.51-9.735c0.748-1.479,2.553-2.072,4.03-1.327
				c1.479,0.747,2.073,2.551,1.327,4.03c-0.164,0.324-4.095,7.982-11.99,12.298c-8.41,4.594-16.545-0.818-24.41-6.055l-1.17-0.778
				c-5.705-3.784-9.762-4.058-17.365,4.641c-3.216,3.679-7.508,5.866-12.086,6.16c-4.004,0.256-7.854-0.978-10.576-3.387
				c-1.482-1.311-2.896-2.952-4.265-4.54c-2.475-2.871-5.279-6.125-7.633-6.165c-2.58-0.038-4.565,1.609-8.395,5.059
				c-1.42,1.278-3.029,2.728-4.924,4.252c-8.339,6.713-17.312,5.367-22.46,2.181c-2.114-1.31-4.038-3.219-5.898-5.066
				c-2.728-2.707-5.549-5.507-8.262-5.619c-2.717-0.092-4.387,1.521-7.913,5.222c-1.661,1.742-3.543,3.718-5.967,5.815
				C371.369,606.324,367.497,607.403,363.698,607.403z"/>
		</g>
		<g>
			<path fill="#007F40" d="M385.37,570.578c-9.267,0-13.695-4.213-19.281-9.525c-0.982-0.935-2.023-1.925-3.16-2.96
				c-2.165-1.972-4.339-2.88-6.465-2.733c-2.336,0.174-4.315,1.644-5.388,2.961l-0.483,0.597c-2.88,3.571-7.7,9.548-16.682,10.637
				c-9.256,1.112-16.314-5.129-21.422-10.701c-1.12-1.222-1.037-3.119,0.184-4.239c1.222-1.12,3.119-1.037,4.239,0.185
				c4.137,4.514,9.715,9.586,16.277,8.799c6.563-0.795,10.129-5.217,12.733-8.446l0.502-0.621c2.412-2.959,5.999-4.886,9.595-5.153
				c2.638-0.189,6.676,0.388,10.95,4.281c1.17,1.065,2.243,2.086,3.255,3.048c5.401,5.137,8.401,7.991,15.485,7.87
				c6.632-0.09,11.847-5.486,15.298-9.057c0.67-0.693,1.271-1.314,1.8-1.817c4.799-4.565,12.629-7.966,22.68,1.77
				c7.284,7.058,11.718,7.271,17.646,6.789c3.4-0.275,9.005-4.141,12.459-7.719c7.186-7.441,14.198-7.965,20.841-1.55
				c1.269,1.226,2.407,2.378,3.458,3.443c5.172,5.24,7.18,7.021,11.42,6.582c6.759-0.711,12.775-6.471,12.834-6.529
				c1.183-1.162,3.08-1.146,4.243,0.032c1.162,1.181,1.147,3.08-0.032,4.243c-0.302,0.297-7.484,7.281-16.417,8.221
				c-7.329,0.78-11.102-3.048-16.318-8.334c-1.02-1.034-2.124-2.152-3.355-3.342c-3.188-3.079-5.414-2.911-6.808-2.518
				c-2.149,0.606-4.095,2.413-5.549,3.919c-3.194,3.309-10.221,9.039-16.291,9.531c-6.852,0.556-13.259,0.303-22.305-8.461
				c-7.069-6.848-11.231-4.717-14.37-1.73c-0.478,0.454-1.018,1.014-1.621,1.639c-3.89,4.026-10.401,10.764-19.531,10.888
				C385.649,570.577,385.509,570.578,385.37,570.578z"/>
		</g>
	</g>
	<path fill="#007F40" d="M583.06,315.05l-90.81-51.046V264h-0.007l-37.686-21.184V242.5h-0.562l-15.147-8.515
		c-0.34-0.341-0.752-0.567-1.194-0.671l-11.955-6.721v-0.443h-0.789l-6.639-3.732v-0.102h-0.181l-2.354-1.323l31.853-18.018
		l-76.658-0.285l32.59,18.32L237.279,315.05h28.122c3.844,5.468,21.694,30.973,31.541,47.019
		c12.953,21.107,25.276,50.038,32.162,75.5c6.034,22.312,5.563,46.356,3.075,61.8h-18.787l-13.107,39.093l217.667,0.831
		l-11.078-39.924h-18.409c-3.584-15.563-2.861-38.464,1.958-59.188c7.561-32.507,20.335-55.949,29.663-73.066
		c7.939-14.567,25.901-42.255,35.607-52.063H583.06z M537.714,309.05l8.403-7.773l14.024,7.773H537.714z M531.152,299.463
		c-0.896-1.053-2.474-1.178-3.524-0.284l-11.599,9.87h-5.063l18.424-17.044l11.201,6.208l-11.075,10.246
		c-0.192,0.178-0.346,0.379-0.48,0.59h-5.292l7.124-6.063C531.92,302.093,532.047,300.515,531.152,299.463z M503.761,299.463
		c-0.897-1.053-2.474-1.178-3.524-0.284l-11.599,9.87h-4.105l19.247-17.806h17.6l-18.609,17.215c-0.192,0.178-0.346,0.379-0.48,0.59
		h-5.937l7.124-6.063C504.528,302.093,504.655,300.515,503.761,299.463z M477.554,299.463c-0.897-1.053-2.474-1.178-3.524-0.284
		l-11.599,9.87h-4.906l19.247-17.806h18.173l-18.609,17.215c-0.192,0.178-0.346,0.379-0.48,0.59h-5.709l7.124-6.063
		C478.321,302.093,478.448,300.515,477.554,299.463z M450.123,299.463c-0.897-1.053-2.474-1.178-3.524-0.284L435,309.05h-4.105
		l19.247-17.806h17.795l-18.609,17.215c-0.192,0.178-0.346,0.379-0.48,0.59h-6.132l7.124-6.063
		C450.891,302.093,451.018,300.515,450.123,299.463z M423.077,299.463c-0.896-1.053-2.474-1.178-3.524-0.284l-11.598,9.87h-3.528
		l19.247-17.806h17.633l-18.609,17.215c-0.192,0.178-0.346,0.379-0.48,0.59h-6.548l7.124-6.063
		C423.845,302.093,423.972,300.515,423.077,299.463z M397.66,299.463c-0.895-1.051-2.473-1.179-3.524-0.284l-11.598,9.87h-4.506
		l19.248-17.806h17.56l-18.609,17.215c-0.192,0.178-0.346,0.379-0.48,0.59h-5.497l7.124-6.063
		C398.428,302.093,398.555,300.515,397.66,299.463z M371.973,299.463c-0.894-1.051-2.473-1.179-3.524-0.284l-11.598,9.87h-5.652
		l19.248-17.806h17.998l-18.61,17.215c-0.192,0.178-0.345,0.379-0.48,0.59h-4.789l7.124-6.063
		C372.741,302.093,372.868,300.515,371.973,299.463z M344.697,299.463c-0.894-1.051-2.473-1.179-3.524-0.284l-11.598,9.87h-4.91
		l19.248-17.806h17.698l-18.61,17.215c-0.192,0.178-0.345,0.379-0.48,0.59h-5.231l7.124-6.063
		C345.465,302.093,345.592,300.515,344.697,299.463z M317.874,299.463c-0.894-1.051-2.472-1.179-3.524-0.284l-11.598,9.87h-4.488
		l19.248-17.806h17.567l-18.61,17.215c-0.192,0.178-0.345,0.379-0.48,0.59h-5.521l7.124-6.063
		C318.642,302.093,318.769,300.515,317.874,299.463z M431.119,237.535l-5.833,4.965h-4.296l7.274-6.547L431.119,237.535z
		 M468.327,258.158L462.16,264h-6.098l5.11-4.349c1.052-0.895,1.179-2.472,0.284-3.524c-0.896-1.052-2.474-1.178-3.524-0.284
		L448.348,264h-4.365l13.16-12.041L468.327,258.158z M502.544,277.124l-9.542,8.12h-5.254l10.699-10.39L502.544,277.124z
		 M510.295,281.42l-3.817,3.824h-5.761l6.499-5.53L510.295,281.42z M517.193,285.244h-2.237l0.797-0.798L517.193,285.244z
		 M479.137,285.244h-5.107l6.564-5.586c1.052-0.895,1.179-2.473,0.284-3.524c-0.897-1.052-2.474-1.178-3.524-0.284l-11.039,9.394
		h-4.337L478.842,270h10.849l3.274,1.814L479.137,285.244z M453.03,285.244h-5.828l6.564-5.586c1.052-0.895,1.179-2.473,0.284-3.524
		c-0.897-1.052-2.474-1.178-3.524-0.284l-11.039,9.394h-4.425L451.927,270h17.968L453.03,285.244z M400.171,276.134
		c-0.895-1.051-2.472-1.178-3.524-0.284l-11.039,9.394h-3.966L398.507,270h17.83l-16.865,15.244h-6.149l6.564-5.586
		C400.939,278.763,401.066,277.185,400.171,276.134z M345.665,270h17.357l-16.865,15.244h-4.714l6.564-5.586
		c1.052-0.895,1.179-2.473,0.284-3.524c-0.894-1.051-2.473-1.178-3.524-0.284l-11.039,9.394H328.8L345.665,270z M382.529,248.5
		h16.129L381.511,264h-4.344l5.11-4.349c1.052-0.895,1.179-2.473,0.284-3.524s-2.472-1.178-3.524-0.284L369.452,264h-3.986
		l16.684-15.081C382.293,248.79,382.417,248.648,382.529,248.5z M425.414,248.5L408.267,264h-6.107l5.11-4.349
		c1.052-0.895,1.179-2.473,0.284-3.524s-2.473-1.178-3.524-0.284L394.444,264h-3.986l16.684-15.081
		c0.143-0.129,0.267-0.271,0.379-0.419H425.414z M371.97,270h17.589l-16.865,15.244h-4.859l6.564-5.586
		c1.052-0.895,1.179-2.473,0.284-3.524c-0.895-1.051-2.472-1.178-3.524-0.284l-11.039,9.394h-5.015L371.97,270z M425.284,270h9.709
		c0.338,0.126,0.691,0.2,1.048,0.2c0.364,0,0.729-0.067,1.076-0.2h5.862l-16.864,15.244h-5.925l6.564-5.586
		c1.052-0.895,1.179-2.473,0.284-3.524c-0.896-1.052-2.474-1.178-3.524-0.284l-11.039,9.394h-4.056L425.284,270z M451.607,248.891
		L435.094,264h-5.467l5.11-4.349c1.052-0.895,1.179-2.472,0.284-3.524c-0.897-1.052-2.474-1.178-3.524-0.284L421.912,264h-4.698
		l16.685-15.081c0.143-0.129,0.267-0.271,0.379-0.419h16.625L451.607,248.891z M422.714,232.876l-10.693,9.624h-6.088l5.706-4.855
		c1.052-0.895,1.179-2.473,0.284-3.524c-0.897-1.052-2.475-1.178-3.524-0.284l-10.18,8.663h-4l11.45-10.35h15.738L422.714,232.876z
		 M385.27,242.5h-5.25l13.594-7.542L385.27,242.5z M373.666,248.5L356.518,264h-7.048l5.11-4.349
		c0.977-0.831,1.144-2.245,0.449-3.285l14.177-7.866H373.666z M341.755,264h-0.486l1.397-0.775L341.755,264z M336.717,270
		l-16.865,15.244h-5.255l6.564-5.586c1.052-0.895,1.179-2.473,0.284-3.524c-0.247-0.291-0.549-0.503-0.875-0.65l9.884-5.484H336.717
		z M306.883,285.244h-3.904l11.217-6.224L306.883,285.244z M470.885,264l2.946-2.791l5.035,2.791H470.885z M433,242.5l2.791-2.375
		l4.286,2.375H433z M394.003,208.777l30.942,0.115l-15.32,8.666L394.003,208.777z M292.165,291.244h16.511l-18.61,17.215
		c-0.192,0.178-0.346,0.379-0.48,0.59h-7.739l7.124-6.063c1.052-0.895,1.179-2.473,0.284-3.524
		c-0.895-1.051-2.472-1.179-3.524-0.284l-11.598,9.87h-14.06L292.165,291.244z M326.429,409.897
		c-4.01-10.723-8.641-21.403-13.588-31.348h194.342c-4.505,8.767-9.237,18.827-13.555,30.366H326.429V409.897z M480.371,470.068
		H339.79c-0.292-8.334-1.202-17.134-2.973-25.867h146.618C481.748,452.781,480.723,461.598,480.371,470.068z M510.051,533.263
		l-201.437-0.771l9.094-27.124h184.603L510.051,533.263z M338.25,499.368c1.005-6.593,1.659-14.579,1.654-23.3h140.331
		c-0.029,8.515,0.655,16.5,2.078,23.3H338.25z M484.73,438.201H335.448c-0.184-0.733-0.355-1.47-0.552-2.199
		c-1.853-6.852-4.101-13.951-6.637-21.086h163.208C488.984,422.114,486.694,429.859,484.73,438.201z M514.817,364.242
		c-1.602,2.939-3.308,6.078-5.067,9.397v-1.09H310.346v1.101c-2.704-5.188-5.48-10.141-8.29-14.72
		c-2.27-3.699-4.962-7.896-7.806-12.23h231.012C521.122,353.244,517.431,359.446,514.817,364.242z M529.122,340.7H290.277
		c-6.742-10.099-13.655-20.074-17.55-25.65h274.901C542.162,321.549,535.377,331.142,529.122,340.7z"/>
	<path fill="#007F40" d="M669.593,141.822C601.693,73.279,510.402,35.53,412.536,35.53c-49.568,0-97.626,9.575-142.838,28.458
		c-43.735,18.267-82.989,44.436-116.669,77.783C83.688,210.424,45.5,302.048,45.5,399.764c0,97.772,38.184,189.57,107.519,258.484
		c33.693,33.488,72.945,59.775,116.667,78.132c45.232,18.99,93.294,28.619,142.851,28.619c97.811,0,189.105-37.93,257.066-106.803
		c67.688-68.596,104.965-160.376,104.965-258.433C774.567,301.765,737.287,210.159,669.593,141.822z M408.224,654.642
		c0.055,2.835,0.113,5.669,0.173,8.472l-11.105-8.271c0.72-3.179,1.69-5.784,2.759-8.002L408.224,654.642z M401.008,644.988
		c1.083-1.955,2.215-3.6,3.252-5.105l0.356-0.518c1.357-1.977,2.44-3.638,3.289-5.123c0.062,5.616,0.155,11.575,0.266,17.583
		L401.008,644.988z M408.453,665.648c0.078,3.495,0.158,6.928,0.238,10.232l-12.636-10.168c0.069-3.288,0.356-6.164,0.801-8.703
		L408.453,665.648z M408.755,678.5c0.099,3.978,0.197,7.738,0.289,11.169l-12.484-12.842c-0.007-0.065-0.016-0.128-0.023-0.194
		c-0.306-3.038-0.458-5.809-0.491-8.358L408.755,678.5z M409.124,692.621c0.167,6.094,0.307,10.881,0.388,13.594
		c-3.699-3.707-10.258-12.039-12.51-26.063L409.124,692.621z M411.565,689.343c-0.099-3.256-0.202-6.802-0.308-10.545l10.573-8.249
		c-0.098,2.851-0.399,5.601-0.842,8.23L411.565,689.343z M420.221,682.646c-2.094,9.134-5.731,16.452-8.211,20.714
		c-0.094-2.811-0.217-6.615-0.355-11.113L420.221,682.646z M411.189,676.316c-0.09-3.254-0.179-6.632-0.265-10.078l9.832-9.162
		c0.66,3.377,1.067,7.022,1.101,10.916L411.189,676.316z M410.859,663.566c-0.067-2.76-0.131-5.55-0.191-8.344
		c0.025-0.023,0.059-0.034,0.082-0.061l7.141-8.087c0.904,2.361,1.721,4.942,2.377,7.724L410.859,663.566z M410.606,652.303
		c-0.136-6.586-0.246-13.125-0.313-19.232c1.907,2.591,4.503,6.638,6.757,11.933L410.606,652.303z M413.532,749.986l-0.002-0.676
		c0.572-2.074,4.998-18.809,16.287-30.7c12.417-13.078,35.41-20.202,54.683-16.938c1.1,0.188,2.122-0.55,2.306-1.638
		c0.147-0.871-0.298-1.698-1.036-2.092c-0.056-0.105-0.118-0.209-0.194-0.307c-4.719-6.031-15.124-13.291-30.174-15.58
		c-13.31-2.021-24.476,1.734-30.626,10.313c-3.607,5.03-5.024,11.285-3.889,17.162c0.658,3.399,2.159,6.318,4.216,8.339
		c-5.585,6.463-9.479,13.754-12.015,19.591l-0.1-28.15c2.262-3.212,12.867-19.413,12.879-40.775
		c0.012-22.437-11.38-37.016-14.614-40.701c-0.678-1.07-0.838-2.314-0.854-2.45c-0.001-0.045,0-0.088-0.002-0.133
		c-0.046-1.104-0.968-1.943-2.081-1.915c-1.104,0.046-1.961,0.978-1.915,2.081c0.136,3.282-0.813,5.467-5.083,11.686l-0.352,0.512
		c-4.3,6.241-10.798,15.674-8.408,39.42c2.131,21.185,13.221,31.542,16.437,34.131l0.076,21.344
		c-2.716-4.824-6.941-11.14-12.84-16.723c0.045-0.14,0.081-0.285,0.095-0.438c1.049-11.537-1.558-20.456-7.748-26.51
		c-6.246-6.11-15.859-8.776-27.07-7.504c-18.208,2.064-26.612,14.934-27.277,15.997c-0.469,0.389-0.761,0.98-0.729,1.635
		c0.054,1.103,0.975,1.926,2.096,1.9c23.244-1.146,42.021,4.228,55.805,15.957c11.71,9.966,17.402,24.101,17.701,24.856l-0.17,8.297
		C216.473,748.046,60.5,591.688,60.5,399.764C60.5,207.196,218.423,50.53,412.536,50.53c194.597,0,347.031,153.401,347.031,349.233
		C759.567,595.821,607.651,749.461,413.532,749.986z M443.359,704.081c-2.676,1.306-5.235,2.771-7.636,4.39
		c0.66-4.455,1.595-9.826,2.377-14.314c0.544-3.117,0.995-5.711,1.238-7.321c2.499-0.77,5.236-1.2,8.16-1.284
		C446.455,690.525,443.853,701.923,443.359,704.081z M449.543,685.549c1.701,0.044,3.452,0.188,5.257,0.462
		c1.407,0.214,2.757,0.484,4.072,0.783l-1.936,12.322c-3.888,0.992-7.678,2.298-11.28,3.893
		C446.571,698.996,448.697,689.628,449.543,685.549z M436.131,693.813c-0.899,5.155-1.998,11.471-2.655,16.258
		c-2.026,1.512-3.919,3.139-5.655,4.871c-1.438-1.444-2.51-3.604-3.006-6.171c-0.929-4.802,0.242-9.931,3.211-14.072
		c2.274-3.17,5.4-5.559,9.17-7.104C436.935,689.199,436.551,691.4,436.131,693.813z M459.041,698.61l1.781-11.336
		c8.338,2.219,14.677,6.017,18.756,9.777C472.781,696.534,465.788,697.099,459.041,698.61z M392.499,712.572
		c-3.178-2.546-6.575-4.802-10.211-6.736c-0.714-5.402-1.503-13.802-1.875-17.91c2.018,1.007,3.824,2.262,5.368,3.771
		C390.646,696.455,392.896,703.475,392.499,712.572z M379.708,704.549c-2.569-1.23-5.236-2.326-8.016-3.267
		c-0.818-5.693-1.624-13.251-1.925-16.14c2.939,0.226,5.67,0.8,8.142,1.706C378.182,689.938,378.96,698.469,379.708,704.549z
		 M369.159,700.484c-3.489-1.048-7.137-1.872-10.936-2.481l-1.253-11.77c1.564-0.403,3.222-0.725,4.988-0.925
		c1.852-0.21,3.65-0.302,5.386-0.28C367.592,687.422,368.355,694.66,369.159,700.484z M355.19,697.568
		c-4.912-0.625-10.057-0.914-15.452-0.834c2.501-2.825,7.254-7.154,14.485-9.671L355.19,697.568z"/>
	<g>
		<path fill="#007F40" d="M208.5,214.192c8.01,0,14.526-6.516,14.526-14.526s-6.516-14.526-14.526-14.526
			s-14.526,6.516-14.526,14.526S200.49,214.192,208.5,214.192z M208.5,193.141c3.598,0,6.526,2.928,6.526,6.526
			s-2.928,6.526-6.526,6.526s-6.526-2.928-6.526-6.526S204.902,193.141,208.5,193.141z"/>
		<path fill="#007F40" d="M644.238,217.633c0-8.095-6.585-14.68-14.68-14.68s-14.68,6.585-14.68,14.68s6.585,14.68,14.68,14.68
			S644.238,225.728,644.238,217.633z M622.879,217.633c0-3.684,2.996-6.68,6.68-6.68s6.68,2.997,6.68,6.68s-2.996,6.68-6.68,6.68
			S622.879,221.317,622.879,217.633z"/>
		<polygon fill="#007F40" points="210.177,220.318 210.821,229.148 245.69,221.348 244.646,213.519 		"/>
		<polygon fill="#007F40" points="600.169,215.188 601.435,250.588 609.631,250.545 608.565,215.545 		"/>
		<path fill="#007F40" d="M181.809,221.327l-5.917-5.385c-21.305,23.412-42.658,68.203-43.556,70.099l7.229,3.427
			c0.127-0.268,7.695-16.143,18.095-33.734l5.059,3.223l-5.084,34.973l9.205,3.805l29.171-17.569l0.094,0.06l4.298-6.947
			l-38.592-24.397c2.992-4.819,6.147-9.633,9.375-14.166l36.676,26.431l4.678-6.49l-36.575-26.358
			C177.908,225.808,179.863,223.465,181.809,221.327z M167.26,286.765l3.92-22.417l15.868,10.109L167.26,286.765z"/>
		<path fill="#007F40" d="M468.214,114.622c-2.488-5.212-6.718-9.201-12.119-10.551c-4.683-1.173-9.745-1.721-14.01,1.843
			c-0.972,0.812-1.866,1.667-2.688,2.568c-2.313-4.416-6.681-7.364-12.563-8.177c-8.052-1.113-12.093-1.291-36.607-0.637
			c-29.812,0.795-60.541,7.875-96.708,22.283c-41.124,16.382-73.722,43.504-75.089,44.65l5.139,6.131
			c0.24-0.201,18.052-15.003,43.357-29.139l5.865,11.042c-5.034-1.104-9.573-0.828-13.527,2.468
			c-3.805,3.171-3.812,7.866-3.037,12.194c-2.859-0.528-6.224-0.383-8.914,0.546c-5.519,1.906-8.613,6.199-8.613,12.491
			c0,6.656,3.55,17.332,22.925,15.19v-8c-12.949,0.851-13.924-4.387-13.924-6.189c0-2.925,1.12-4.734,3.425-5.53
			c3.358-1.161,8.667-0.359,10.877,2.462l4.396-4.292c-3.524-3.243-3.783-10.352-1.414-12.327c4.318-3.597,9.24-1.915,12.894,0.567
			l10.088,18.994l7.065-3.753l-20.697-39.864c5.439-2.832,11.152-5.571,17.052-8.097l18.038,41.029l8.081-3.316l-18.666-40.746
			c9.108-3.569,17.859-6.656,26.326-9.28c-3.381,7.699-4.023,15.902-1.527,22.951c3.206,9.056,9.693,15.367,22.742,17.757
			l1.637-7.831c-7.686-1.559-14.567-6.183-16.838-12.596c-2.463-6.958-0.467-16.03,5.067-23.494
			c9.453-2.545,18.585-4.499,27.502-5.869v31.62l9.814,4.173l1.847-2.725c0.07-0.104,6.666-11.169,16.918-14.441l-0.454,24.2
			l7.999,0.144l0.529-29.441l-6.305-6.08l-2.527,1.168c-9.464,4.375-16.105,10.739-19.822,15.139v-24.831
			c6.303-0.735,12.522-1.198,18.69-1.363c25.135-0.67,28.065-0.436,35.298,0.564c5.272,0.729,7.731,3.635,7.517,8.885
			c-0.105,2.592-1.277,6.441-4.232,8.759c-2.327,1.825-5.997,1.969-9.71,1.216l-0.187,8.642c7.625,1.542,11.909-1.269,14.834-3.563
			c0.464-0.364,0.895-0.752,1.309-1.151c0.463,1.266,1.04,2.32,1.728,3.105c4.271,4.877,8.476,4.205,13.213,4.342l0.433-7.797
			c-2.479-0.072-5.615-0.594-7.011-2.198c-1.612-1.853-2.463-4.674-2.08-8.159c0.5-4.561,3.526-6.994,5.306-8.233
			c2.165-1.507,5.29-1.249,7.699-0.647c4.51,1.128,10.05,6.148,10.809,17.124l-6.077,29.715l8.026,1.861l9.564-44.329l8,1.839
			l1.711-7.814l-16.666-3.562L468.214,114.622z"/>
		<path fill="#007F40" d="M680.057,293.083l7.555-3.232c-9.068-26.03-33.114-61.596-34.134-63.098l-6.619,4.493
			c0.143,0.209,8.435,12.684,17.055,28.006l-6.188,2.814c-7.837-7.533-21.806-19.646-22.471-20.222l-2.732-2.769l-7.029,6.841
			l-2.303,31.78l4.228,8.12l26.833-13.222c3.764,8.654,4.128,15.833,2.094,18.449c-1.906,2.45-9.988,1.166-12.819-0.187l0.353,8.418
			c2.231,1.068,5.45,1.547,8.568,1.547c4.48,0,7.563-1.202,10.413-4.867c4.345-5.585,3.793-15.989-1.047-26.958l5.963-2.712
			C672.61,275.324,677.179,284.824,680.057,293.083z M632.034,274.319l1.591-19.944l15.576,11.396L632.034,274.319z"/>
		<path fill="#007F40" d="M619.907,198.787l6.186-5.073c-28.715-35.009-85.896-63.597-88.316-64.797l-3.553,7.167
			c0.286,0.142,14.569,7.282,32.265,18.551l-3.862,5.724l0.075-0.384l-32.188-6.015l-3.573,9.843l14.556,27.829l7.252,4.887
			l25.045-37.116c4.101,2.745,8.3,5.675,12.481,8.759c-12.017,2.156-13.45,8.979-14.064,18.378
			c-0.217,3.316-1.084,7.75-3.981,10.041c-2.118,1.675-5.281,2.17-9.394,1.476l-1.734,7.688c1.651,0.279,4.227,1.219,5.723,1.219
			c4.34,0,7.415-1.773,10.367-4.107c4.177-3.302,6.532-8.616,7.002-15.794c0.441-6.729,1.294-11.596,15.517-11.625
			c3.994,3.225,7.886,6.574,11.566,10.019l-30.716,33.7l6.281,6.024l30.358-33.9C615.578,193.747,617.828,196.252,619.907,198.787z
			 M547.013,184.786l-9.351-20.64l0.829-0.104l19.513,3.966L547.013,184.786z"/>
	</g>
</g>
</svg>
